<?xml version="1.0" encoding="utf-8"?><svg width="1440" height="430" viewBox="0 0 1440 430" fill="none" xmlns="http://www.w3.org/2000/svg">
<g opacity="0.44">
<path d="M2194.5 228.487L2437.87 265.752L2438.08 264.486L2202.96 228.487H2325.98V227.206H2194.62L2001.63 197.656H2325.99V196.375H1993.28L1837.85 172.578H2325.99V171.297H1829.5L1699.44 151.387H2320.65V150.106H1691.1L1578.44 132.853H2320.65V131.572H1570.09L1483.85 118.367H2320.65V117.086H1475.5L1389.26 103.881H2320.65V102.6H1380.92L1333.63 95.3608H2320.65V94.1018H1325.29L1277.99 86.8624H2320.65V85.5815H1269.64L1222.35 78.3421H2320.65V77.0611H1214L1184.79 72.5887H2320.65V71.3077H1176.45L1147.23 66.8353H2320.65V65.5543H1138.89L1109.68 61.0819H2320.65V59.8009H1101.34L1077.7 56.1776H2130.48V54.8966H-693.928V56.1776H362.313L338.673 59.8009H-884.107V61.0819H330.325L301.111 65.5543H-884.107V66.8353H292.764L263.55 71.3077H-884.107V72.5887H255.21L225.996 77.0611H-884.107V78.3421H217.656L170.36 85.5815H-884.107V86.8624H162.012L114.715 94.1018H-884.107V95.3827H106.375L59.0863 102.622H-884.107V103.903H50.7462L-35.4991 117.108H-884.107V118.389H-43.8469L-130.085 131.594H-884.107V132.875H-138.425L-251.093 150.128H-884.107V151.409H-259.441L-389.495 171.319H-878.769V172.6H-397.835L-553.274 196.397H-878.769V197.678H-561.614L-754.606 227.228H-878.769V228.509H-762.962L-998.08 264.493L-997.875 265.76L-754.508 228.494H-189.785L-349.121 268.534H-884.107V269.815H-354.201L-570.318 324.121H-884.107V325.402H-575.406L-800.925 382.065L-800.591 383.302L-570.151 325.395H31.6849L-78.3678 382.124L-77.7461 383.251L34.4978 325.395H278.949L152.261 428.202L153.111 429.183L281.004 325.395H458.787L415.114 382.307L416.176 383.068L460.432 325.395H636.046L621.481 382.533L622.762 382.841L637.403 325.402H802.569L817.21 382.841L818.492 382.533L803.927 325.395H979.541L1023.8 383.068L1024.86 382.307L981.186 325.395H1159L1286.89 429.176L1287.74 428.195L1161.05 325.395H1405.51L1517.76 383.251L1518.38 382.124L1408.33 325.395H2010.16L2240.6 383.302L2240.94 382.065L2015.42 325.395H2320.66V324.114H2010.33L1794.21 269.808H2320.65V268.527H1789.12L1629.79 228.487H2194.5ZM2186.16 227.213H1624.7L1507.11 197.663H1993.17L2186.16 227.213ZM682.099 150.113L686.497 132.86H753.514L757.912 150.113H682.099ZM758.23 151.394L763.303 171.304H676.686L681.758 151.394H758.23ZM741.785 86.8624L743.627 94.1018H696.376L698.219 86.8624H741.785ZM698.545 85.5815L700.387 78.3421H739.609L741.451 85.5815H698.545ZM743.953 95.3827L745.796 102.622H694.2L696.042 95.3827H743.953ZM746.129 103.903L749.496 117.108H690.515L693.882 103.903H746.129ZM749.814 118.382L753.18 131.587H686.815L690.182 118.382H749.814ZM751.179 118.382H820.698L830.828 131.587H754.538L751.179 118.382ZM750.853 117.108L747.486 103.903H809.583L819.72 117.108H750.853ZM747.161 102.622L745.318 95.3827H803.047L808.605 102.622H747.161ZM744.992 94.1018L743.15 86.8624H796.519L802.077 94.1018H744.992ZM742.816 85.5815L740.973 78.3421H789.976L795.534 85.5815H742.816ZM740.647 77.0611L739.51 72.5887H785.563L788.998 77.0611H740.647ZM739.283 77.0611H700.713L701.85 72.5887H738.138L739.283 77.0611ZM699.356 77.0611H651.013L654.448 72.5887H700.501L699.356 77.0611ZM699.03 78.3421L697.187 85.5815H644.477L650.035 78.3421H699.03ZM696.861 86.8624L695.019 94.1018H637.942L643.499 86.8624H696.861ZM694.685 95.3827L692.843 102.622H631.398L636.956 95.3827H694.685ZM692.517 103.903L689.151 117.108H620.283L630.42 103.903H692.517ZM688.824 118.382L685.458 131.587H609.168L619.297 118.382H688.824ZM685.132 132.868L680.734 150.121H594.952L608.19 132.868H685.132ZM754.871 132.868H831.813L845.052 150.121H759.269L754.871 132.868ZM833.466 132.868H921.744L943.004 150.121H846.704L833.466 132.868ZM832.481 131.587L822.351 118.382H903.896L920.167 131.587H832.481ZM821.365 117.108L811.228 103.903H886.047L902.318 117.108H821.365ZM810.25 102.622L804.693 95.3827H875.546L884.47 102.622H810.25ZM803.714 94.1018L798.157 86.8624H865.045L873.969 94.1018H803.714ZM797.179 85.5815L791.621 78.3421H854.552L863.476 85.5815H797.179ZM790.643 77.0611L787.208 72.5887H847.47L852.982 77.0611H790.643ZM786.23 71.3151L782.796 66.8426H840.381L845.893 71.3151H786.23ZM784.578 71.3151H739.177L738.039 66.8426H781.143L784.578 71.3151ZM737.819 71.3151H702.184L703.321 66.8426H736.682L737.819 71.3151ZM700.819 71.3151H655.418L658.853 66.8426H701.957L700.819 71.3151ZM653.773 71.3151H594.11L599.622 66.8426H657.208L653.773 71.3151ZM652.795 72.5887L649.36 77.0611H587.021L592.533 72.5887H652.795ZM648.382 78.3421L642.824 85.5815H576.527L585.452 78.3421H648.382ZM641.846 86.8624L636.289 94.1018H566.034L574.958 86.8624H641.846ZM635.303 95.3827L629.745 102.622H555.525L564.449 95.3827H635.303ZM628.767 103.903L618.63 117.108H537.677L553.948 103.903H628.767ZM617.652 118.382L607.523 131.587H519.837L536.108 118.382H617.652ZM606.537 132.868L593.299 150.121H497L518.26 132.868H606.537ZM592.321 151.394L577.035 171.304H470.887L495.423 151.394H592.321ZM593.966 151.394H680.408L675.336 171.304H578.688L593.966 151.394ZM675.01 172.585L668.944 196.382H559.445L577.71 172.585H675.01ZM676.367 172.585H763.629L769.694 196.382H670.294L676.367 172.585ZM764.993 172.585H862.293L880.558 196.382H771.059L764.993 172.585ZM764.667 171.304L759.595 151.394H846.037L861.323 171.304H764.667ZM847.682 151.394H944.573L969.108 171.304H862.96L847.682 151.394ZM946.628 151.394H1067.92L1106.55 171.304H971.171L946.628 151.394ZM945.058 150.113L923.798 132.86H1031.98L1065.45 150.113H945.058ZM922.221 131.587L905.95 118.382H1003.88L1029.5 131.587H922.221ZM904.381 117.108L888.11 103.903H975.788L1001.41 117.108H904.381ZM886.533 102.622L877.609 95.3827H959.259L973.309 102.622H886.533ZM876.032 94.1018L867.108 86.8624H942.723L956.772 94.1018H876.032ZM865.531 85.5815L856.607 78.3421H926.194L940.244 85.5815H865.531ZM855.037 77.0611L849.525 72.5887H915.041L923.715 77.0611H855.037ZM847.948 71.3151L842.436 66.8426H903.88L912.554 71.3151H847.948ZM840.866 65.5616L835.354 61.0892H892.727L901.401 65.5616H840.866ZM838.804 65.5616H781.81L778.383 61.0892H833.292L838.804 65.5616ZM780.165 65.5616H737.713L736.576 61.0892H776.738L780.165 65.5616ZM736.356 65.5616H703.655L704.792 61.0892H735.219L736.356 65.5616ZM702.29 65.5616H659.839L663.273 61.0892H703.435L702.29 65.5616ZM658.186 65.5616H601.192L606.704 61.0892H661.62L658.186 65.5616ZM599.137 65.5616H538.595L547.269 61.0892H604.642L599.137 65.5616ZM597.568 66.8426L592.055 71.3151H527.442L536.115 66.8426H597.568ZM590.478 72.5887L584.966 77.0611H516.288L524.962 72.5887H590.478ZM583.389 78.3421L574.465 85.5815H499.752L513.802 78.3421H583.389ZM572.896 86.8624L563.972 94.1018H483.231L497.28 86.8624H572.896ZM562.395 95.3827L553.471 102.622H466.702L480.752 95.3827H562.395ZM551.901 103.903L535.63 117.108H438.611L464.23 103.903H551.901ZM534.053 118.382L517.782 131.587H410.504L436.124 118.382H534.053ZM516.205 132.868L494.945 150.121H374.558L408.025 132.868H516.205ZM493.368 151.394L468.833 171.304H333.448L372.079 151.394H493.368ZM467.256 172.585L437.928 196.382H284.795L330.969 172.585H467.256ZM469.318 172.585H576.065L557.8 196.382H439.991L469.318 172.585ZM556.814 197.663L534.136 227.213H401.997L438.414 197.663H556.814ZM558.46 197.663H668.611L661.082 227.213H535.782L558.46 197.663ZM669.976 197.663H770.028L777.557 227.213H662.439L669.976 197.663ZM771.392 197.663H881.544L904.222 227.213H778.921L771.392 197.663ZM883.189 197.663H1001.59L1038.01 227.213H905.867L883.189 197.663ZM882.211 196.382L863.946 172.585H970.693L1000.02 196.382H882.211ZM972.748 172.585H1109.04L1155.22 196.382H1002.07L972.748 172.585ZM1111.85 172.585H1402.06L1496.77 196.382H1158.02L1111.85 172.585ZM1109.37 171.304L1070.74 151.394H1317.74L1396.98 171.304H1109.37ZM1068.26 150.113L1034.79 132.86H1244.01L1312.66 150.113H1068.26ZM1032.31 131.587L1006.69 118.382H1186.38L1238.92 131.587H1032.31ZM1004.21 117.108L978.593 103.903H1128.74L1181.29 117.108H1004.21ZM976.114 102.622L962.065 95.3827H1094.84L1123.65 102.622H976.114ZM959.585 94.1018L945.536 86.8624H1060.94L1089.76 94.1018H959.585ZM943.056 85.5815L929.007 78.3421H1027.04L1055.86 85.5815H943.056ZM926.528 77.0611L917.854 72.5887H1004.16L1021.95 77.0611H926.528ZM915.375 71.3151L906.701 66.8426H981.277L999.072 71.3151H915.375ZM904.214 65.5616L895.54 61.0892H958.395L976.19 65.5616H904.214ZM893.061 59.8156L886.04 56.1922H938.902L953.307 59.8156H893.061ZM890.248 59.8156H833.777L829.319 56.1922H883.227L890.248 59.8156ZM831.723 59.8156H777.405L774.63 56.1922H827.264L831.723 59.8156ZM775.752 59.8156H736.25L735.325 56.1922H772.97L775.752 59.8156ZM734.885 59.8156H705.111L706.036 56.1922H733.96L734.885 59.8156ZM703.753 59.8156H664.251L667.026 56.1922H704.678L703.753 59.8156ZM662.598 59.8156H608.281L612.739 56.1922H665.373L662.598 59.8156ZM606.226 59.8156H549.755L556.776 56.1922H610.684L606.226 59.8156ZM546.943 59.8156H486.696L501.102 56.1922H553.964L546.943 59.8156ZM544.463 61.0892L535.789 65.5616H463.813L481.608 61.0892H544.463ZM533.31 66.8426L524.636 71.3151H440.939L458.734 66.8426H533.31ZM522.149 72.5887L513.475 77.0611H418.048L435.844 72.5887H522.149ZM510.996 78.3421L496.947 85.5815H384.149L412.969 78.3421H510.996ZM494.467 86.8624L480.418 94.1018H350.243L379.062 86.8624H494.467ZM477.939 95.3827L463.889 102.622H316.344L345.155 95.3827H477.939ZM461.41 103.903L435.79 117.108H258.713L311.264 103.903H461.41ZM433.311 118.382L407.691 131.587H201.082L253.625 118.382H433.311ZM405.212 132.868L371.745 150.121H127.347L195.995 132.868H405.212ZM369.266 151.394L330.636 171.304H43.0276L122.267 151.394H369.266ZM328.156 172.585L281.982 196.382H-56.7667L37.9401 172.585H328.156ZM279.503 197.663L222.168 227.213H-179.451L-61.8618 197.663H279.503ZM282.316 197.663H436.359L399.943 227.213H224.98L282.316 197.663ZM398.366 228.487L349.022 268.527H144.816L222.501 228.487H398.366ZM400.42 228.487H533.151L502.421 268.527H351.077L400.42 228.487ZM534.804 228.487H660.756L650.551 268.527H504.074L534.804 228.487ZM662.121 228.487H777.89L788.096 268.527H651.915L662.121 228.487ZM779.247 228.487H905.2L935.929 268.527H789.453L779.247 228.487ZM906.845 228.487H1039.58L1088.92 268.527H937.567L906.845 228.487ZM1041.64 228.487H1217.5L1295.19 268.527H1090.98L1041.64 228.487ZM1040.06 227.213L1003.64 197.663H1157.69L1215.02 227.213H1040.06ZM1160.5 197.663H1501.86L1619.45 227.213H1217.83L1160.5 197.663ZM1984.82 196.382H1502.02L1407.32 172.585H1829.39L1984.82 196.382ZM1821.04 171.304H1402.23L1322.99 151.394H1690.99L1821.04 171.304ZM1682.64 150.113H1317.9L1249.26 132.86H1569.97L1682.64 150.113ZM1561.63 131.587H1244.18L1191.63 118.382H1475.4L1561.63 131.587ZM1467.05 117.108H1186.54L1133.99 103.903H1380.8L1467.05 117.108ZM1372.46 102.622H1128.91L1100.09 95.3827H1325.17L1372.46 102.622ZM1316.83 94.1018H1095.01L1066.19 86.8624H1269.53L1316.83 94.1018ZM1261.19 85.5815H1061.11L1032.29 78.3421H1213.89L1261.19 85.5815ZM1205.55 77.0611H1027.2L1009.41 72.5887H1176.34L1205.55 77.0611ZM1167.99 71.3151H1004.32L986.524 66.8426H1138.78L1167.99 71.3151ZM1130.44 65.5616H981.444L963.649 61.0892H1101.23L1130.44 65.5616ZM1092.88 59.8156H958.554L944.148 56.1922H1069.24L1092.88 59.8156ZM370.767 56.1922H495.855L481.449 59.8156H347.126L370.767 56.1922ZM338.779 61.0892H476.362L458.567 65.5616H309.573L338.779 61.0892ZM301.225 66.8426H453.479L435.684 71.3151H272.012L301.225 66.8426ZM263.664 72.5887H430.597L412.802 77.0611H234.458L263.664 72.5887ZM226.11 78.3421H407.714L378.895 85.5815H178.814L226.11 78.3421ZM170.473 86.8624H373.815L344.996 94.1018H123.177L170.473 86.8624ZM114.829 95.3827H339.908L311.097 102.622H67.5402L114.829 95.3827ZM59.2001 103.903H306.017L253.466 117.108H-27.0452L59.2001 103.903ZM-35.393 118.382H248.379L195.835 131.587H-121.623L-35.393 118.382ZM-129.971 132.868H190.755L122.108 150.121H-242.639L-129.971 132.868ZM-250.987 151.394H117.013L37.7732 171.304H-381.034L-250.987 151.394ZM-389.381 172.585H32.6934L-62.0134 196.382H-544.82L-389.381 172.585ZM-746.16 227.213L-553.168 197.663H-67.1086L-184.698 227.213H-746.16ZM-184.531 228.487H219.688L142.003 268.527H-343.867L-184.531 228.487ZM-565.072 324.114L-348.954 269.808H139.524L34.1567 324.114H-565.072ZM36.9696 324.114L142.337 269.808H347.445L280.519 324.114H36.9696ZM282.581 324.114L349.507 269.808H501.451L459.772 324.114H282.581ZM461.417 324.114L503.096 269.808H650.224L636.38 324.114H461.417ZM637.745 324.114L651.589 269.808H788.422L802.266 324.114H637.745ZM803.624 324.114L789.779 269.808H936.908L978.586 324.114H803.624ZM980.231 324.114L938.553 269.808H1090.5L1157.42 324.114H980.231ZM1159.48 324.114L1092.55 269.808H1297.66L1403.03 324.114H1159.48ZM2005.07 324.114H1405.85L1300.48 269.808H1788.96L2005.07 324.114ZM1783.87 268.534H1297.99L1220.31 228.494H1624.53L1783.87 268.534Z" fill="url(#paint0_linear)"/>
<path d="M1454.68 31.6071C1454.68 31.5925 1454.68 31.5705 1454.67 31.5559V31.5486C1454.67 31.5339 1454.67 31.512 1454.66 31.4973C1454.66 31.49 1454.65 31.49 1454.65 31.4827C1454.64 31.4681 1454.64 31.4607 1454.64 31.4461C1454.64 31.4388 1454.63 31.4315 1454.63 31.4315C1454.62 31.4241 1454.61 31.4095 1454.61 31.4022C1454.6 31.3949 1454.6 31.3949 1454.59 31.3875C1454.59 31.3875 1454.59 31.3875 1454.58 31.3802C1454.58 31.3729 1454.56 31.3583 1454.55 31.3509C1454.55 31.3509 1454.55 31.3509 1454.55 31.3436C1454.53 31.329 1454.51 31.3217 1454.5 31.3143C1454.49 31.3143 1454.49 31.307 1454.48 31.307C1454.47 31.2997 1454.46 31.2924 1454.45 31.2924C1454.44 31.2924 1454.43 31.2851 1454.43 31.2851C1454.42 31.2777 1454.4 31.2777 1454.39 31.2704H1454.38C1454.36 31.2704 1454.34 31.2631 1454.32 31.2631H1454.31C1454.29 31.2631 1454.28 31.2631 1454.26 31.2704C1454.26 31.2704 1454.25 31.2704 1454.25 31.2704C1454.24 31.2704 1454.23 31.2704 1454.23 31.2704L1442.25 34.1984L1425.98 27.0761L1400.9 16.0817L1381.01 7.36378H1381.01C1381.01 7.36378 1381 7.36378 1381 7.35646C1381 7.35646 1381 7.35646 1380.99 7.35646C1380.97 7.34914 1380.95 7.34182 1380.93 7.34182H1380.92C1380.91 7.34182 1380.89 7.3345 1380.88 7.3345C1380.87 7.3345 1380.86 7.3345 1380.86 7.3345C1380.86 7.3345 1380.86 7.3345 1380.85 7.3345H1380.84C1380.83 7.3345 1380.83 7.3345 1380.82 7.3345C1380.81 7.3345 1380.8 7.3345 1380.8 7.3345C1380.79 7.3345 1380.77 7.34182 1380.76 7.34182C1380.76 7.34182 1380.76 7.34182 1380.75 7.34914H1380.74L1330.78 24.1116C1330.78 24.1116 1330.78 24.1116 1330.77 24.1116C1330.77 24.1116 1330.76 24.1116 1330.76 24.1189C1330.75 24.1189 1330.75 24.1262 1330.74 24.1262C1330.73 24.1262 1330.73 24.1336 1330.72 24.1336L1297.05 41.8769L1270.74 35.7355L1251.72 31.2924L1226.59 10.526L1213.95 0.0731986C1213.95 0.0731986 1213.95 0.0731986 1213.95 0.0731986C1213.94 0.0731986 1213.94 0.0658787 1213.93 0.0658787C1213.92 0.0585589 1213.92 0.0585589 1213.92 0.051239C1213.91 0.051239 1213.91 0.0439191 1213.9 0.0439191C1213.89 0.0439191 1213.88 0.0365993 1213.88 0.0365993C1213.88 0.0365993 1213.87 0.0292794 1213.87 0.0292794C1213.86 0.0292794 1213.86 0.0219596 1213.85 0.0219596C1213.85 0.0219596 1213.84 0.0146397 1213.83 0.0146397C1213.82 0.0146397 1213.82 0.00731986 1213.82 0.00731986C1213.81 0.00731986 1213.81 0.00731986 1213.8 0H1213.79C1213.79 0 1213.79 0 1213.78 0C1213.77 0 1213.77 0 1213.76 0C1213.76 0 1213.76 0 1213.75 0C1213.74 0 1213.73 0 1213.73 0C1213.72 0 1213.72 0 1213.71 0C1213.7 0 1213.7 0 1213.7 0C1213.69 0 1213.67 0 1213.67 0H1213.66C1213.65 0 1213.65 0 1213.64 0.00731986C1213.63 0.00731986 1213.63 0.0146397 1213.61 0.0146397C1213.6 0.0146397 1213.6 0.0146397 1213.6 0.0146397C1213.59 0.0146397 1213.59 0.0219596 1213.58 0.0219596C1213.57 0.0219596 1213.57 0.0292794 1213.56 0.0292794H1213.55C1213.55 0.0292794 1213.55 0.0292794 1213.54 0.0292794C1213.54 0.0292794 1213.54 0.0292794 1213.54 0.0292794L1196.06 9.33282L1172.07 22.0986L1145.62 26.6882L1115.65 31.8853L1087.11 22.106C1087.08 22.0913 1087.05 22.0986 1087.02 22.0986C1087 22.0986 1086.98 22.0913 1086.97 22.0913C1086.95 22.0913 1086.94 22.0913 1086.92 22.0986C1086.89 22.0986 1086.86 22.0986 1086.83 22.106L1058.29 31.8853L1028.32 26.6882L1001.87 22.0986L977.88 9.33282L960.404 0.0292794C960.404 0.0292794 960.404 0.0292794 960.396 0.0292794C960.396 0.0292794 960.396 0.0292794 960.388 0.0292794H960.381C960.373 0.0219596 960.366 0.0219596 960.358 0.0219596C960.35 0.0219596 960.35 0.0146397 960.343 0.0146397C960.335 0.0146397 960.335 0.0146397 960.328 0.0146397C960.32 0.0146397 960.312 0.00731986 960.297 0.00731986C960.29 0.00731986 960.29 0.00731986 960.282 0H960.274C960.267 0 960.259 0 960.244 0C960.237 0 960.237 0 960.229 0C960.222 0 960.222 0 960.214 0C960.206 0 960.199 0 960.191 0C960.184 0 960.176 0 960.176 0C960.168 0 960.161 0 960.161 0C960.153 0 960.153 0 960.146 0H960.138C960.13 0 960.13 0 960.123 0.00731986C960.115 0.00731986 960.108 0.0146397 960.108 0.0146397C960.1 0.0146397 960.093 0.0219596 960.085 0.0219596C960.077 0.0219596 960.077 0.0292794 960.07 0.0292794C960.062 0.0292794 960.055 0.0365993 960.055 0.0365993C960.047 0.0365993 960.04 0.0439191 960.04 0.0439191C960.032 0.0439191 960.032 0.051239 960.024 0.051239C960.017 0.0585589 960.009 0.0585589 960.009 0.0658787C960.002 0.0658787 960.002 0.0731986 959.994 0.0731986C959.994 0.0731986 959.994 0.0731986 959.986 0.0731986L947.347 10.526L922.22 31.2924L903.197 35.7355L876.895 41.8769L843.193 24.1336C843.186 24.1336 843.186 24.1262 843.178 24.1262C843.171 24.1262 843.163 24.1189 843.155 24.1189C843.155 24.1189 843.148 24.1189 843.148 24.1116C843.148 24.1116 843.148 24.1116 843.14 24.1116L793.175 7.34914H793.167C793.16 7.34914 793.16 7.34914 793.152 7.34182C793.145 7.34182 793.129 7.3345 793.122 7.3345C793.114 7.3345 793.107 7.3345 793.099 7.3345C793.091 7.3345 793.084 7.3345 793.076 7.3345H793.069C793.069 7.3345 793.069 7.3345 793.061 7.3345C793.053 7.3345 793.046 7.3345 793.038 7.3345C793.023 7.3345 793.008 7.3345 792.993 7.34182H792.985C792.963 7.34914 792.947 7.34914 792.925 7.35646C792.925 7.35646 792.925 7.35646 792.917 7.35646C792.917 7.35646 792.909 7.35646 792.909 7.36378H792.902L773.014 16.0817L747.941 27.0761L731.677 34.2057L719.69 31.2777C719.683 31.2777 719.675 31.2777 719.675 31.2777C719.667 31.2777 719.66 31.2777 719.66 31.2777C719.645 31.2777 719.629 31.2777 719.614 31.2704H719.607C719.599 31.2704 719.591 31.2704 719.576 31.2704C719.569 31.2704 719.561 31.2704 719.546 31.2704H719.538C719.523 31.2704 719.508 31.2704 719.493 31.2777C719.485 31.2777 719.478 31.2777 719.478 31.2777C719.47 31.2777 719.463 31.2777 719.463 31.2777L707.476 34.2057L691.189 27.0761L666.116 16.0817L646.228 7.36378H646.221C646.221 7.36378 646.213 7.36378 646.213 7.35646C646.213 7.35646 646.213 7.35646 646.205 7.35646C646.183 7.34914 646.168 7.34182 646.145 7.34182H646.137C646.122 7.34182 646.107 7.3345 646.092 7.3345C646.084 7.3345 646.076 7.3345 646.069 7.3345C646.069 7.3345 646.069 7.3345 646.061 7.3345H646.054C646.046 7.3345 646.039 7.3345 646.031 7.3345C646.023 7.3345 646.016 7.3345 646.008 7.3345C646.001 7.3345 645.985 7.34182 645.978 7.34182C645.97 7.34182 645.97 7.34182 645.963 7.34914H645.955L595.99 24.1116C595.99 24.1116 595.99 24.1116 595.982 24.1116C595.982 24.1116 595.975 24.1116 595.975 24.1189C595.967 24.1189 595.959 24.1262 595.952 24.1262C595.944 24.1262 595.944 24.1336 595.937 24.1336C595.937 24.1336 595.937 24.1336 595.929 24.1336L562.257 41.8769L535.948 35.7355L516.925 31.2924L491.798 10.526L479.159 0.0731986C479.159 0.0731986 479.159 0.0731986 479.151 0.0731986C479.144 0.0731986 479.144 0.0658787 479.136 0.0658787C479.128 0.0585589 479.128 0.0585589 479.121 0.051239C479.113 0.051239 479.113 0.0439191 479.106 0.0439191C479.098 0.0439191 479.098 0.0365993 479.091 0.0365993C479.083 0.0365993 479.075 0.0292794 479.075 0.0292794C479.068 0.0292794 479.068 0.0219596 479.06 0.0219596C479.053 0.0219596 479.045 0.0146397 479.037 0.0146397C479.03 0.0146397 479.022 0.00731986 479.022 0.00731986C479.015 0.00731986 479.015 0.00731986 479.007 0H478.999C478.992 0 478.992 0 478.984 0C478.977 0 478.977 0 478.969 0C478.962 0 478.962 0 478.954 0C478.947 0 478.939 0 478.931 0C478.924 0 478.924 0 478.916 0C478.909 0 478.909 0 478.901 0C478.893 0 478.886 0 478.871 0H478.863C478.855 0 478.855 0 478.848 0.00731986C478.84 0.00731986 478.833 0.0146397 478.818 0.0146397C478.81 0.0146397 478.81 0.0146397 478.802 0.0146397C478.795 0.0146397 478.795 0.0219596 478.787 0.0219596C478.78 0.0219596 478.772 0.0292794 478.765 0.0292794H478.757C478.757 0.0292794 478.757 0.0292794 478.749 0.0292794C478.749 0.0292794 478.749 0.0292794 478.742 0.0292794L461.265 9.33282L437.276 22.0986L410.822 26.6882L380.858 31.8853L352.32 22.106C352.289 22.0913 352.251 22.0986 352.221 22.0986C352.206 22.0986 352.19 22.0913 352.175 22.0913C352.16 22.0913 352.145 22.0913 352.13 22.0986C352.1 22.0986 352.062 22.0986 352.031 22.106L323.493 31.8853L293.529 26.6882L267.075 22.0986L243.086 9.33282L225.609 0.0292794C225.609 0.0292794 225.609 0.0292794 225.601 0.0292794C225.601 0.0292794 225.601 0.0292794 225.594 0.0292794H225.586C225.579 0.0219596 225.571 0.0219596 225.564 0.0219596C225.556 0.0219596 225.556 0.0146397 225.548 0.0146397C225.541 0.0146397 225.541 0.0146397 225.533 0.0146397C225.526 0.0146397 225.518 0.00731986 225.503 0.00731986C225.495 0.00731986 225.495 0.00731986 225.488 0H225.48C225.473 0 225.465 0 225.45 0C225.442 0 225.442 0 225.435 0C225.427 0 225.427 0 225.42 0C225.412 0 225.404 0 225.397 0C225.389 0 225.382 0 225.382 0H225.366C225.359 0 225.359 0 225.351 0H225.344C225.336 0 225.336 0 225.329 0.00731986C225.321 0.00731986 225.313 0.0146397 225.313 0.0146397C225.306 0.0146397 225.298 0.0219596 225.291 0.0219596C225.283 0.0219596 225.283 0.0292794 225.275 0.0292794C225.268 0.0292794 225.26 0.0365993 225.26 0.0365993C225.253 0.0365993 225.245 0.0439191 225.245 0.0439191C225.238 0.0439191 225.238 0.051239 225.23 0.051239C225.222 0.0585589 225.215 0.0585589 225.215 0.0658787C225.207 0.0658787 225.207 0.0731986 225.2 0.0731986C225.2 0.0731986 225.2 0.0731986 225.192 0.0731986L212.553 10.526L187.426 31.2924L168.403 35.7355L142.101 41.8769L108.429 24.1336C108.429 24.1336 108.429 24.1336 108.422 24.1336C108.414 24.1336 108.414 24.1262 108.407 24.1262C108.399 24.1262 108.391 24.1189 108.384 24.1189C108.384 24.1189 108.376 24.1189 108.376 24.1116C108.376 24.1116 108.376 24.1116 108.369 24.1116L58.4033 7.34914H58.3957C58.3881 7.34914 58.3881 7.34914 58.3805 7.34182C58.3729 7.34182 58.3577 7.3345 58.3502 7.3345C58.3426 7.3345 58.335 7.3345 58.3274 7.3345C58.3198 7.3345 58.3123 7.3345 58.3047 7.3345H58.2971C58.2971 7.3345 58.2971 7.3345 58.2895 7.3345C58.282 7.3345 58.2743 7.3345 58.2668 7.3345C58.2516 7.3345 58.2364 7.3345 58.2212 7.34182H58.2137C58.191 7.34914 58.1758 7.34914 58.153 7.35646C58.153 7.35646 58.153 7.35646 58.1454 7.35646C58.1454 7.35646 58.1378 7.35646 58.1378 7.36378H58.1302L38.2427 16.0817L13.169 27.0761L-3.0944 34.2057L-15.0815 31.2777C-15.0891 31.2777 -15.0967 31.2777 -15.0967 31.2777C-15.1043 31.2777 -15.1119 31.2777 -15.1119 31.2777C-15.127 31.2777 -15.1421 31.2777 -15.1573 31.2704H-15.1649C-15.1876 31.2704 -15.2029 31.2704 -15.2256 31.2777H-15.2331C-15.2483 31.2777 -15.2635 31.2851 -15.2786 31.2924C-15.2862 31.2924 -15.2938 31.2997 -15.2938 31.2997C-15.309 31.307 -15.3165 31.307 -15.3317 31.3143C-15.3393 31.3143 -15.3393 31.3217 -15.3468 31.3217C-15.362 31.329 -15.3772 31.3436 -15.3924 31.3509C-15.3924 31.3509 -15.3924 31.3509 -15.4 31.3583C-15.4076 31.3656 -15.4227 31.3802 -15.4302 31.3875C-15.4302 31.3875 -15.4302 31.3875 -15.4378 31.3949C-15.4454 31.4022 -15.4454 31.4022 -15.453 31.4095C-15.4606 31.4168 -15.4682 31.4315 -15.4758 31.4388C-15.4758 31.4461 -15.4834 31.4534 -15.4834 31.4534C-15.4909 31.4607 -15.4985 31.4754 -15.4985 31.49C-15.4985 31.4973 -15.5061 31.4973 -15.5061 31.5047C-15.5137 31.5193 -15.5212 31.5413 -15.5212 31.5559V31.5632C-15.5212 31.5779 -15.5288 31.5998 -15.5288 31.6145V31.6218V48.7722V55.2869C-15.5288 55.4772 -15.362 55.6382 -15.1649 55.6382H5.59463H18.4461H63.8092H94.4784H142.048H169.844H179.639H244.534H273.186H299.435H316.335H322.158H340.522H352.153C352.16 55.6382 352.168 55.6382 352.175 55.6382C352.183 55.6382 352.191 55.6382 352.198 55.6382H363.829H382.193H388.015H404.916H431.165H459.817H524.711H534.507H562.303H609.872H640.542H685.905H698.756H719.516C719.523 55.6382 719.538 55.6309 719.546 55.6309C719.554 55.6309 719.569 55.6382 719.576 55.6382H740.336H753.187H798.551H829.22H876.789H904.607H914.403H979.298H1007.95H1034.2H1051.1H1056.92H1075.29H1086.92C1086.92 55.6382 1086.93 55.6382 1086.94 55.6382C1086.95 55.6382 1086.95 55.6382 1086.96 55.6382H1098.59H1116.96H1122.78H1139.68H1165.93H1194.58H1259.48H1269.27H1297.07H1344.64H1375.31H1420.67H1433.52H1454.28C1454.48 55.6382 1454.64 55.4845 1454.64 55.2869V48.7722L1454.68 31.6071C1454.68 31.6145 1454.68 31.6145 1454.68 31.6071ZM60.367 9.61829L72.8621 18.5778L60.0713 23.9213L58.7065 8.42515L60.367 9.61829ZM81.1341 41.9501L81.589 43.2896L60.4048 24.5508L73.355 19.1341L81.1341 41.9501ZM74.2875 19.6026L93.887 33.664L87.0328 39.7981L82.5368 43.824L74.2875 19.6026ZM81.8392 44.4608L77.6236 48.2379L74.7046 44.2559L62.0122 26.9224L81.8392 44.4608ZM57.9483 8.20556L59.3359 23.914L48.9409 19.9978L39.3118 16.3745L57.9483 8.20556ZM38.7279 16.9015L59.0932 24.5728L46.128 36.7603L37.5603 44.8122L38.0229 33.6567L38.7279 16.9015ZM37.9849 16.9528L37.3101 33.1882L22.0703 29.2794L14.3746 27.3031L37.9849 16.9528ZM37.2797 33.9056L36.8173 44.9732L14.8902 28.1595L35.8771 33.5396L37.2797 33.9056ZM13.0173 27.896L13.0781 28.2107L15.9441 43.8093L-2.25272 34.5936L13.0173 27.896ZM-3.60234 34.8059L-8.50037 44.6804L-9.09929 45.8809L-12.496 37.3752L-14.5962 32.1269L-3.60234 34.8059ZM-14.8237 33.5176L-9.6149 46.5616L-14.8237 48.2744V33.5176ZM-14.8237 54.9282V49.0138L-9.17509 47.1545L4.26019 54.9282H-14.8237ZM3.66118 53.7643L-8.66715 46.6348L-7.82556 44.9439L-3.10949 35.4501L4.82125 54.4378L3.66118 53.7643ZM5.81445 54.9282L1.4548 44.4901L-2.37406 35.3256L5.20794 39.1686L16.1033 44.6877L17.9836 54.9282H5.81445ZM13.8287 28.2473L36.4913 45.6247L18.6964 54.7452L13.8287 28.2473ZM19.8791 54.9282L37.1812 46.0639L61.7772 54.9282H19.8791ZM47.0605 48.8747L37.8257 45.5441L59.4799 25.1876L63.3543 54.7452L47.0605 48.8747ZM60.2912 25.8025L77.0094 48.6331L64.0822 54.7452L60.2912 25.8025ZM65.3483 54.9282L65.5986 54.8111L77.5781 49.1528L89.5577 53.7717L92.5753 54.9355H65.3483V54.9282ZM94.0917 54.7598L89.5273 53.0031L78.2301 48.6478L87.3741 40.4642L94.0917 34.4472V54.7598ZM60.3822 8.75455L107.436 24.5435L94.4632 33.2029L60.3822 8.75455ZM94.8271 33.8177L108.012 25.0193L113.866 46.5762L110.287 48.1061L94.8271 54.7379V33.8177ZM108.915 25.5463L117.164 33.0711L122.865 38.2682L114.495 46.0931L108.915 25.5463ZM96.1692 54.9282L114.321 47.1472L139.697 54.9282H96.1692ZM114.98 46.6202L123.389 38.7586L124.541 39.8127L140.622 54.489L114.98 46.6202ZM141.661 54.4597L137.673 50.8218L123.639 38.0193L110.522 26.0514L141.661 42.4625V54.4597ZM326.472 38.4658L331.712 48.1281L324.804 46.2249L314.447 43.3775L322.659 33.7885L323.44 32.8808L326.472 38.4658ZM324.228 32.8003L343.35 37.829L341.341 39.7395L332.53 48.1061L324.228 32.8003ZM322.841 32.4928L313.773 43.0774L294.727 27.6178L322.841 32.4928ZM292.725 27.2665L279.464 40.7496L267.697 22.9258L292.725 27.2665ZM278.213 40.1714L278.842 41.1303L270.517 43.824L268.652 31.4022L267.545 24.0164L278.213 40.1714ZM269.661 43.0042L268.129 41.0937L259.319 30.0773L266.673 23.1747L269.661 43.0042ZM251.176 47.5498L240.409 24.9461L258.394 30.2822L252.791 50.9389L251.176 47.5498ZM252.131 51.2536L238.832 45.1269L240.015 25.8171L252.131 51.2536ZM259 30.8312L269.653 44.1534L253.435 51.3561L259 30.8312ZM266.332 22.5159L258.879 29.5137L244.215 10.7455L266.332 22.5159ZM243.093 10.482L251.009 20.62L257.863 29.3965L240.159 24.1482L243.093 10.482ZM242.487 9.82325L241.41 14.8227L239.568 23.4016L226.39 1.25902L242.487 9.82325ZM225.677 1.47129L234.852 16.8869L239.363 24.463L238.15 44.1827L223.6 21.1544L225.677 1.47129ZM224.965 1.18582L224.115 9.25962L222.933 20.4517L213.311 10.8187L224.965 1.18582ZM212.955 11.4702L222.705 21.2276L204.85 38.173L212.955 11.4702ZM212.083 11.8289L203.872 38.8831L188.237 31.5339L212.083 11.8289ZM142.397 54.9282V42.8138L156.856 49.5847L168.251 54.9209H142.397V54.9282ZM143.094 42.3673L168.138 36.5188L169.411 54.7013L143.094 42.3673ZM168.865 36.3504L186.259 32.2879L169.586 46.5909L168.865 36.3504ZM170.169 54.9282L169.995 52.476L169.692 48.0988L178.585 54.9282H170.169ZM179.435 54.6866L169.836 47.3156L183.514 35.5818L186.827 32.7417L183.878 41.5109L179.435 54.6866ZM184.666 41.4304L187.805 32.1049L203.379 39.4247L180.291 54.4158L184.666 41.4304ZM180.807 54.9282L204.152 39.7761L238.703 53.3691L242.669 54.9282H180.807ZM204.759 39.2564L223.145 21.8059L243.631 54.5549L204.759 39.2564ZM239.37 46.1517L247.756 50.0166L251.987 51.9637L244.67 54.8404L239.37 46.1517ZM246.361 54.9282L252.919 52.3443L254.777 52.6444L268.834 54.9282H246.361ZM265.506 53.6765L254.102 51.8246L269.971 44.7756L270.813 47.9011L272.678 54.833L265.506 53.6765ZM270.661 44.512L278.744 41.8989L273.254 54.1889L270.661 44.512ZM273.724 54.9282L279.563 41.8623L298.305 54.9282H273.724ZM279.957 41.2694L282.436 38.744L293.225 27.7715L298.874 54.4597L279.957 41.2694ZM295.272 33.8763L294.021 27.9619L313.257 43.5751L299.662 54.6281L295.272 33.8763ZM300.421 54.9282L303.249 52.6224L313.583 44.2193L313.72 44.8707L315.865 54.9282H300.421ZM322.037 54.9282H316.623L314.303 44.0655L331.575 48.8161L330.741 49.3505L322.037 54.9282ZM323.349 54.9282L332.402 49.1309L339.513 54.9282H323.349ZM340.651 54.9282L335.783 50.9608L332.97 48.6697L339.809 42.1697L343.926 38.2609L344.98 40.5666L351.577 54.9282H340.651ZM351.781 53.6033L346.929 43.0408L344.464 37.6753L351.774 26.4759V53.6033H351.781ZM351.781 25.1583L343.888 37.2508L324.729 32.2147L351.781 22.9478V25.1583ZM516.091 31.5339L500.457 38.8831L492.245 11.8289L516.091 31.5339ZM499.478 38.1804L481.623 21.2349L491.373 11.4775L499.478 38.1804ZM491.025 10.8114L481.403 20.4444L480.22 9.2523L479.371 1.1785L491.025 10.8114ZM480.736 21.1617L466.186 44.19L464.973 24.4703L469.484 16.8942L478.658 1.47861L480.736 21.1617ZM445.942 30.2822L463.927 24.9461L453.16 47.5498L451.545 50.9389L445.942 30.2822ZM450.901 51.3561L434.683 44.1534L445.335 30.8312L450.901 51.3561ZM464.321 25.8171L465.504 45.1269L452.205 51.2536L464.321 25.8171ZM477.946 1.25902L464.768 23.4016L462.926 14.8227L461.849 9.82325L477.946 1.25902ZM464.177 24.1409L446.473 29.3892L453.327 20.6127L461.242 10.4747L464.177 24.1409ZM460.12 10.7455L445.457 29.5137L438.004 22.5159L460.12 10.7455ZM437.655 23.1747L445.009 30.0773L436.207 41.0937L434.675 43.0042L437.655 23.1747ZM435.676 31.4022L433.811 43.824L425.486 41.1303L426.115 40.1714L436.783 24.0164L435.676 31.4022ZM436.639 22.9258L424.872 40.7496L411.611 27.2665L436.639 22.9258ZM409.609 27.6178L390.563 43.0774L381.495 32.4928L409.609 27.6178ZM380.888 32.8881L381.669 33.7958L389.881 43.3848L379.524 46.2322L372.617 48.1354L377.856 38.4732L380.888 32.8881ZM371.805 48.1061L362.995 39.7395L360.986 37.829L380.107 32.8003L371.805 48.1061ZM352.554 22.9404L379.607 32.2074L360.447 37.2434L352.554 25.151V22.9404ZM352.554 26.4832L359.864 37.6826L357.399 43.0481L352.547 53.6106V26.4832H352.554ZM363.685 54.9282H352.752L359.348 40.5666L360.402 38.2609L364.519 42.1697L371.358 48.6697L368.545 50.9608L363.685 54.9282ZM364.815 54.9282L371.926 49.1309L380.979 54.9282H364.815ZM387.712 54.9282H382.299L373.594 49.3505L372.761 48.8161L390.032 44.0655L387.712 54.9282ZM388.463 54.9282L390.609 44.8707L390.745 44.2193L401.079 52.6224L403.907 54.9282H388.463ZM404.673 54.6281L391.079 43.5751L410.314 27.9619L409.063 33.8763L404.673 54.6281ZM411.103 27.7715L421.892 38.744L424.371 41.2694L405.446 54.4597L411.103 27.7715ZM406.038 54.9282L424.781 41.8623L430.619 54.9282H406.038ZM431.074 54.1889L425.584 41.8989L433.667 44.512L431.074 54.1889ZM433.523 47.9085L434.364 44.7829L450.233 51.8319L438.83 53.6838L431.658 54.8477L433.523 47.9085ZM435.502 54.9282L449.559 52.6444L451.416 52.3443L457.975 54.9282H435.502ZM459.665 54.8404L452.349 51.9637L456.58 50.0166L464.965 46.1517L459.665 54.8404ZM481.191 21.8059L499.577 39.2564L460.697 54.5549L481.191 21.8059ZM461.667 54.9282L465.632 53.3691L500.184 39.7761L523.529 54.9282H461.667ZM500.957 39.4247L516.53 32.1049L519.669 41.4304L524.044 54.4158L500.957 39.4247ZM520.466 41.5109L517.516 32.7417L520.829 35.5818L534.507 47.3156L524.909 54.6866L520.466 41.5109ZM534.34 52.476L534.166 54.9282H525.75L534.644 48.0988L534.34 52.476ZM518.077 32.2879L535.47 36.3504L534.75 46.5909L518.077 32.2879ZM536.198 36.5188L561.241 42.3673L534.924 54.7013L536.198 36.5188ZM561.939 54.9282H536.092L547.488 49.592L561.947 42.8212V54.9282H561.939ZM795.154 9.61829L807.649 18.5778L794.858 23.9213L793.493 8.42515L795.154 9.61829ZM815.921 41.9501L816.376 43.2896L795.192 24.5508L808.142 19.1341L815.921 41.9501ZM809.074 19.6026L828.674 33.664L821.82 39.7981L817.323 43.824L809.074 19.6026ZM816.618 44.4608L812.403 48.2379L809.484 44.2559L796.792 26.9224L816.618 44.4608ZM792.735 8.20556L794.123 23.914L783.728 19.9978L774.099 16.3745L792.735 8.20556ZM773.507 16.9015L793.872 24.5728L780.907 36.7603L772.34 44.8122L772.802 33.6567L773.507 16.9015ZM772.772 16.9528L772.097 33.1882L756.857 29.2794L749.161 27.3031L772.772 16.9528ZM772.067 33.9056L771.604 44.9732L749.677 28.1595L770.664 33.5396L772.067 33.9056ZM747.804 27.896L747.865 28.2107L750.731 43.8093L732.534 34.5936L747.804 27.896ZM731.177 34.8059L726.279 44.6804L725.68 45.8809L722.283 37.3752L720.183 32.1269L731.177 34.8059ZM719.955 33.5176L725.164 46.5616L719.955 48.2744V33.5176ZM718.932 32.1195L716.832 37.3679L713.435 45.8735L712.836 44.6731L707.938 34.7986L718.932 32.1195ZM691.258 28.2107L691.318 27.896L706.596 34.5936L688.399 43.8093L691.258 28.2107ZM689.961 27.3031L682.265 29.2794L667.025 33.1882L666.351 16.9528L689.961 27.3031ZM689.445 28.1595L667.518 44.9732L667.056 33.9056L668.459 33.5469L689.445 28.1595ZM666.313 33.6494L666.775 44.8048L658.208 36.753L645.242 24.5654L665.608 16.8942L666.313 33.6494ZM646.387 8.20556L665.024 16.3745L655.395 19.9978L645 23.914L646.387 8.20556ZM645.629 8.42515L644.264 23.9213L631.474 18.5778L643.969 9.61829L645.629 8.42515ZM622.747 43.2823L623.202 41.9428L630.981 19.1268L643.931 24.5435L622.747 43.2823ZM642.323 26.9224L629.631 44.2559L626.712 48.2379L622.496 44.4608L642.323 26.9224ZM621.791 43.824L617.295 39.7981L610.441 33.664L630.041 19.6026L621.791 43.824ZM562.674 42.4625L593.814 26.0514L580.697 38.0193L566.663 50.8218L562.674 54.4597V42.4625ZM595.421 25.5463L589.841 46.1005L581.47 38.2755L587.172 33.0784L595.421 25.5463ZM579.795 39.8054L580.947 38.7513L589.355 46.6128L563.713 54.4744L579.795 39.8054ZM564.638 54.9282L590.015 47.1472L608.167 54.9282H564.638ZM609.508 54.7379L594.049 48.1061L590.47 46.5762L596.323 25.0193L609.508 33.8177V54.7379ZM609.872 33.2029L596.9 24.5435L643.953 8.75455L609.872 33.2029ZM610.244 34.4472L616.962 40.4642L626.105 48.6478L614.808 53.0031L610.244 54.7598V34.4472ZM611.76 54.9282L614.778 53.7643L626.758 49.1455L638.737 54.8038L638.987 54.9209H611.76V54.9282ZM640.246 54.7452L627.319 48.6331L644.037 25.8025L640.246 54.7452ZM644.863 25.1876L666.518 45.5441L657.283 48.8747L640.997 54.7452L644.863 25.1876ZM642.551 54.9282L667.147 46.0639L684.449 54.9282H642.551ZM685.639 54.7379L667.844 45.6173L690.507 28.24L685.639 54.7379ZM698.521 54.9282H686.352L688.232 44.6877L699.128 39.1686L706.71 35.3256L702.881 44.4901L698.521 54.9282ZM707.445 35.4501L712.161 44.9439L713.003 46.6348L700.674 53.7643L699.514 54.4378L707.445 35.4501ZM719.159 54.9282H700.075L713.511 47.1545L719.159 49.0138V54.9282ZM719.159 48.2744L713.951 46.5616L719.159 33.5176V48.2744ZM719.955 54.9282V49.0138L725.596 47.1545L739.032 54.9282H719.955ZM738.448 53.7643L726.12 46.6348L726.961 44.9439L731.677 35.4501L739.608 54.4378L738.448 53.7643ZM740.601 54.9282L736.242 44.4901L732.413 35.3256L739.995 39.1686L750.89 44.6877L752.77 54.9282H740.601ZM748.615 28.2473L771.278 45.6247L753.483 54.7452L748.615 28.2473ZM754.666 54.9282L771.968 46.0639L796.564 54.9282H754.666ZM781.84 48.8747L772.605 45.5441L794.259 25.1876L798.134 54.7452L781.84 48.8747ZM795.078 25.8025L811.796 48.6331L798.869 54.7452L795.078 25.8025ZM800.135 54.9282L800.385 54.8111L812.365 49.1528L824.344 53.7717L827.362 54.9355H800.135V54.9282ZM828.879 54.7598L824.314 53.0031L813.017 48.6478L822.161 40.4642L828.879 34.4472V54.7598ZM795.169 8.75455L842.223 24.5435L829.25 33.2029L795.169 8.75455ZM829.614 33.8177L842.799 25.0193L848.652 46.5762L845.074 48.1061L829.614 54.7379V33.8177ZM843.694 25.5463L851.943 33.0711L857.645 38.2682L849.274 46.0931L843.694 25.5463ZM830.948 54.9282L849.1 47.1472L874.477 54.9282H830.948ZM849.767 46.6202L858.175 38.7586L859.328 39.8127L875.409 54.489L849.767 46.6202ZM876.448 54.4597L872.46 50.8218L858.426 38.0193L845.309 26.0514L876.448 42.4625V54.4597ZM1061.26 38.4658L1066.5 48.1281L1059.59 46.2249L1049.23 43.3775L1057.45 33.7885L1058.23 32.8808L1061.26 38.4658ZM1059.01 32.8003L1078.14 37.829L1076.13 39.7395L1067.32 48.1061L1059.01 32.8003ZM1057.62 32.4928L1048.55 43.0774L1029.51 27.6178L1057.62 32.4928ZM1027.5 27.2665L1014.24 40.7496L1002.48 22.9258L1027.5 27.2665ZM1013 40.1714L1013.63 41.1303L1005.3 43.824L1003.44 31.4022L1002.33 24.0164L1013 40.1714ZM1004.44 43.0042L1002.91 41.0937L994.098 30.0773L1001.45 23.1747L1004.44 43.0042ZM985.962 47.5498L975.196 24.9461L993.18 30.2822L987.577 50.9389L985.962 47.5498ZM986.918 51.2536L973.619 45.1269L974.802 25.8171L986.918 51.2536ZM993.787 30.8312L1004.44 44.1534L988.222 51.3561L993.787 30.8312ZM1001.12 22.5159L993.666 29.5137L979.002 10.7455L1001.12 22.5159ZM977.88 10.482L985.796 20.62L992.65 29.3965L974.946 24.1482L977.88 10.482ZM977.273 9.82325L976.197 14.8227L974.354 23.4016L961.177 1.25902L977.273 9.82325ZM960.464 1.47129L969.638 16.8869L974.15 24.463L972.937 44.1827L958.387 21.1544L960.464 1.47129ZM959.751 1.18582L958.902 9.25962L957.719 20.4517L948.098 10.8187L959.751 1.18582ZM947.741 11.4702L957.492 21.2276L939.636 38.173L947.741 11.4702ZM946.87 11.8289L938.658 38.8831L923.024 31.5339L946.87 11.8289ZM877.183 54.9282V42.8138L891.642 49.5847L903.038 54.9209H877.183V54.9282ZM877.881 42.3673L902.924 36.5188L904.198 54.7013L877.881 42.3673ZM903.652 36.3504L921.045 32.2879L904.372 46.5909L903.652 36.3504ZM904.949 54.9282L904.774 52.476L904.464 48.0988L913.357 54.9282H904.949ZM914.214 54.6866L904.615 47.3156L918.293 35.5818L921.606 32.7417L918.657 41.5109L914.214 54.6866ZM919.453 41.4304L922.592 32.1049L938.165 39.4247L915.078 54.4158L919.453 41.4304ZM915.594 54.9282L938.939 39.7761L973.49 53.3691L977.455 54.9282H915.594ZM939.545 39.2564L957.932 21.8059L978.418 54.5549L939.545 39.2564ZM974.157 46.1517L982.543 50.0166L986.774 51.9637L979.457 54.8404L974.157 46.1517ZM981.148 54.9282L987.706 52.3443L989.564 52.6444L1003.62 54.9282H981.148ZM1000.29 53.6765L988.889 51.8246L1004.76 44.7756L1005.6 47.9011L1007.46 54.833L1000.29 53.6765ZM1005.45 44.512L1013.53 41.8989L1008.04 54.1889L1005.45 44.512ZM1008.51 54.9282L1014.35 41.8623L1033.09 54.9282H1008.51ZM1014.74 41.2694L1017.22 38.744L1028.01 27.7715L1033.66 54.4597L1014.74 41.2694ZM1030.06 33.8763L1028.81 27.9619L1048.04 43.5751L1034.45 54.6281L1030.06 33.8763ZM1035.2 54.9282L1038.03 52.6224L1048.36 44.2193L1048.5 44.8707L1050.64 54.9282H1035.2ZM1056.82 54.9282H1051.4L1049.08 44.0655L1066.35 48.8161L1065.52 49.3505L1056.82 54.9282ZM1058.14 54.9282L1067.19 49.1309L1074.3 54.9282H1058.14ZM1075.44 54.9282L1070.57 50.9608L1067.76 48.6697L1074.6 42.1697L1078.71 38.2609L1079.77 40.5666L1086.36 54.9282H1075.44ZM1086.56 53.6033L1081.71 43.0408L1079.24 37.6753L1086.55 26.4759V53.6033H1086.56ZM1086.56 25.1583L1078.67 37.2508L1059.51 32.2147L1086.56 22.9478V25.1583ZM1250.88 31.5339L1235.24 38.8831L1227.03 11.8289L1250.88 31.5339ZM1234.27 38.1804L1216.41 21.2349L1226.16 11.4775L1234.27 38.1804ZM1225.81 10.8114L1216.19 20.4444L1215.01 9.2523L1214.16 1.1785L1225.81 10.8114ZM1215.52 21.1617L1200.97 44.19L1199.76 24.4703L1204.27 16.8942L1213.45 1.47861L1215.52 21.1617ZM1180.73 30.2822L1198.71 24.9461L1187.95 47.5498L1186.33 50.9389L1180.73 30.2822ZM1185.69 51.3561L1169.47 44.1534L1180.12 30.8312L1185.69 51.3561ZM1199.11 25.8171L1200.29 45.1269L1186.99 51.2536L1199.11 25.8171ZM1212.73 1.25902L1199.55 23.4016L1197.7 14.8227L1196.63 9.82325L1212.73 1.25902ZM1198.96 24.1409L1181.26 29.3892L1188.11 20.6127L1196.03 10.4747L1198.96 24.1409ZM1194.91 10.7455L1180.24 29.5137L1172.79 22.5159L1194.91 10.7455ZM1172.44 23.1747L1179.8 30.0773L1170.99 41.0937L1169.46 43.0042L1172.44 23.1747ZM1170.46 31.4022L1168.6 43.824L1160.27 41.1303L1160.9 40.1714L1171.57 24.0164L1170.46 31.4022ZM1171.43 22.9258L1159.66 40.7496L1146.4 27.2665L1171.43 22.9258ZM1144.4 27.6178L1125.35 43.0774L1116.28 32.4928L1144.4 27.6178ZM1115.68 32.8881L1116.46 33.7958L1124.67 43.3848L1114.31 46.2322L1107.4 48.1354L1112.64 38.4732L1115.68 32.8881ZM1106.59 48.1061L1097.78 39.7395L1095.77 37.829L1114.89 32.8003L1106.59 48.1061ZM1087.34 22.9404L1114.39 32.2074L1095.23 37.2434L1087.34 25.151V22.9404ZM1087.34 26.4832L1094.65 37.6826L1092.19 43.0481L1087.33 53.6106V26.4832H1087.34ZM1098.47 54.9282H1087.54L1094.13 40.5666L1095.19 38.2609L1099.31 42.1697L1106.14 48.6697L1103.33 50.9608L1098.47 54.9282ZM1099.6 54.9282L1106.71 49.1309L1115.77 54.9282H1099.6ZM1122.5 54.9282H1117.09L1108.38 49.3505L1107.55 48.8161L1124.82 44.0655L1122.5 54.9282ZM1123.25 54.9282L1125.4 44.8707L1125.53 44.2193L1135.87 52.6224L1138.69 54.9282H1123.25ZM1139.46 54.6281L1125.87 43.5751L1145.1 27.9619L1143.85 33.8763L1139.46 54.6281ZM1145.89 27.7715L1156.68 38.744L1159.16 41.2694L1140.23 54.4597L1145.89 27.7715ZM1140.82 54.9282L1159.56 41.8623L1165.4 54.9282H1140.82ZM1165.86 54.1889L1160.37 41.8989L1168.45 44.512L1165.86 54.1889ZM1168.31 47.9085L1169.15 44.7829L1185.02 51.8319L1173.62 53.6838L1166.44 54.8477L1168.31 47.9085ZM1170.29 54.9282L1184.35 52.6444L1186.2 52.3443L1192.76 54.9282H1170.29ZM1194.45 54.8404L1187.14 51.9637L1191.37 50.0166L1199.75 46.1517L1194.45 54.8404ZM1215.98 21.8059L1234.36 39.2564L1195.48 54.5549L1215.98 21.8059ZM1196.45 54.9282L1200.42 53.3691L1234.97 39.7761L1258.32 54.9282H1196.45ZM1235.74 39.4247L1251.31 32.1049L1254.45 41.4304L1258.82 54.4158L1235.74 39.4247ZM1255.25 41.5109L1252.3 32.7417L1255.62 35.5818L1269.29 47.3156L1259.7 54.6866L1255.25 41.5109ZM1269.13 52.476L1268.95 54.9282H1260.54L1269.43 48.0988L1269.13 52.476ZM1252.86 32.2879L1270.26 36.3504L1269.54 46.5909L1252.86 32.2879ZM1270.98 36.5188L1296.03 42.3673L1269.71 54.7013L1270.98 36.5188ZM1296.73 54.9282H1270.88L1282.27 49.592L1296.73 42.8212V54.9282H1296.73ZM1453.72 32.1195L1451.62 37.3679L1448.22 45.8735L1447.62 44.6731L1442.72 34.7986L1453.72 32.1195ZM1426.04 28.2107L1426.11 27.896L1441.38 34.5936L1423.19 43.8093L1426.04 28.2107ZM1424.75 27.3031L1417.05 29.2794L1401.81 33.1882L1401.14 16.9528L1424.75 27.3031ZM1424.23 28.1595L1402.31 44.9732L1401.84 33.9056L1403.25 33.5469L1424.23 28.1595ZM1401.09 33.6494L1401.55 44.8048L1392.99 36.753L1380.02 24.5654L1400.39 16.8942L1401.09 33.6494ZM1381.17 8.20556L1399.81 16.3745L1390.18 19.9978L1379.79 23.914L1381.17 8.20556ZM1380.42 8.42515L1379.05 23.9213L1366.26 18.5778L1378.76 9.61829L1380.42 8.42515ZM1357.53 43.2823L1357.99 41.9428L1365.77 19.1268L1378.72 24.5435L1357.53 43.2823ZM1377.11 26.9224L1364.42 44.2559L1361.5 48.2379L1357.28 44.4608L1377.11 26.9224ZM1356.58 43.824L1352.08 39.7981L1345.23 33.664L1364.83 19.6026L1356.58 43.824ZM1297.46 42.4625L1328.6 26.0514L1315.48 38.0193L1301.45 50.8218L1297.46 54.4597V42.4625ZM1330.21 25.5463L1324.63 46.1005L1316.26 38.2755L1321.96 33.0784L1330.21 25.5463ZM1314.58 39.8054L1315.73 38.7513L1324.14 46.6128L1298.5 54.4744L1314.58 39.8054ZM1299.42 54.9282L1324.8 47.1472L1342.95 54.9282H1299.42ZM1344.3 54.7379L1328.84 48.1061L1325.26 46.5762L1331.11 25.0193L1344.3 33.8177V54.7379ZM1344.65 33.2029L1331.68 24.5435L1378.73 8.75455L1344.65 33.2029ZM1345.03 34.4472L1351.75 40.4642L1360.89 48.6478L1349.59 53.0031L1345.03 54.7598V34.4472ZM1346.55 54.9282L1349.56 53.7643L1361.54 49.1455L1373.52 54.8038L1373.77 54.9209H1346.55V54.9282ZM1375.03 54.7452L1362.11 48.6331L1378.82 25.8025L1375.03 54.7452ZM1379.65 25.1876L1401.3 45.5441L1392.07 48.8747L1375.78 54.7452L1379.65 25.1876ZM1377.34 54.9282L1401.93 46.0639L1419.24 54.9282H1377.34ZM1420.43 54.7379L1402.63 45.6173L1425.29 28.24L1420.43 54.7379ZM1433.31 54.9282H1421.14L1423.02 44.6877L1433.91 39.1686L1441.5 35.3256L1437.67 44.4901L1433.31 54.9282ZM1442.23 35.4501L1446.95 44.9439L1447.79 46.6348L1435.46 53.7643L1434.3 54.4378L1442.23 35.4501ZM1453.95 54.9282H1434.86L1448.3 47.1545L1453.94 49.0138V54.9282H1453.95ZM1453.95 48.2744L1448.74 46.5616L1453.95 33.5176V48.2744Z" fill="url(#paint1_linear)"/>
</g>
<defs>
<linearGradient id="paint0_linear" x1="720.002" y1="383.434" x2="720.002" y2="54.9154" gradientUnits="userSpaceOnUse">
<stop offset="0.00469932" stop-color="#41CCB4" stop-opacity="0"/>
<stop offset="0.73393" stop-color="#41CCB4"/>
<stop offset="1" stop-color="#41CCB4" stop-opacity="0.37"/>
</linearGradient>
<linearGradient id="paint1_linear" x1="719.56" y1="-0.00731986" x2="719.56" y2="55.6275" gradientUnits="userSpaceOnUse">
<stop stop-color="#41CCB4"/>
<stop offset="1" stop-color="#41CCB4" stop-opacity="0.51"/>
</linearGradient>
</defs>
</svg>
