<svg width="178" height="406" viewBox="0 0 178 406" fill="none" xmlns="http://www.w3.org/2000/svg">
<path d="M50.811 205.82C48.9303 190.965 53.4438 175.136 69.4802 175.179C62.5305 175.161 53.4438 195.292 55.6321 206.324C55.9741 208.283 56.4613 210.13 57.0597 211.9C59.872 220.991 69.0443 231.287 79.6611 230.483C76.8915 231.527 72.455 231.646 70.5915 231.561C65.4626 231.321 53.1617 224.454 50.811 205.82Z" fill="#F9F9F9" stroke="#142533" stroke-width="1.3268" stroke-miterlimit="10" stroke-linecap="round"/>
<path d="M78.4983 230.74C88.6507 229.078 94.8461 215.292 92.3361 199.947C89.8261 184.603 79.5613 173.511 69.4089 175.173C59.2565 176.835 53.0611 190.621 55.5711 205.966C58.0811 221.311 68.3459 232.402 78.4983 230.74Z" fill="#F9F9F9" stroke="#142533" stroke-width="1.3268" stroke-miterlimit="10" stroke-linecap="round"/>
<path d="M77.6139 222.238C84.7611 221.068 89.123 211.365 87.3564 200.565C85.5898 189.765 78.3637 181.958 71.2165 183.128C64.0693 184.298 59.7075 194.002 61.4741 204.802C63.2407 215.602 70.4667 223.408 77.6139 222.238Z" fill="#F9F9F9" stroke="#142533" stroke-width="1.3268" stroke-miterlimit="10" stroke-linecap="round"/>
<path d="M71.5491 229.944L67.7451 230.928" stroke="#142533" stroke-width="1.3268" stroke-miterlimit="10" stroke-linecap="round"/>
<path d="M66.0434 226.712L62.3506 227.969" stroke="#142533" stroke-width="1.3268" stroke-miterlimit="10" stroke-linecap="round"/>
<path d="M68.6168 228.456L65.1035 229.662" stroke="#142533" stroke-width="1.3268" stroke-miterlimit="10" stroke-linecap="round"/>
<path d="M61.2311 221.384L57.1279 222.615" stroke="#142533" stroke-width="1.3268" stroke-miterlimit="10" stroke-linecap="round"/>
<path d="M63.6585 224.283L59.6836 225.609" stroke="#142533" stroke-width="1.3268" stroke-miterlimit="10" stroke-linecap="round"/>
<path d="M58.0086 214.722L53.4609 215.979" stroke="#142533" stroke-width="1.3268" stroke-miterlimit="10" stroke-linecap="round"/>
<path d="M59.3845 217.946L54.8711 219.058" stroke="#142533" stroke-width="1.3268" stroke-miterlimit="10" stroke-linecap="round"/>
<path d="M55.854 207.778L51.332 209.027" stroke="#142533" stroke-width="1.3268" stroke-miterlimit="10" stroke-linecap="round"/>
<path d="M56.8374 211.558L52.2812 212.806" stroke="#142533" stroke-width="1.3268" stroke-miterlimit="10" stroke-linecap="round"/>
<path d="M54.8879 199.047L50.46 200.27" stroke="#142533" stroke-width="1.3268" stroke-miterlimit="10" stroke-linecap="round"/>
<path d="M55.256 194.848L50.5459 196.148" stroke="#142533" stroke-width="1.3268" stroke-miterlimit="10" stroke-linecap="round"/>
<path d="M55.7262 191.265L50.999 192.564" stroke="#142533" stroke-width="1.3268" stroke-miterlimit="10" stroke-linecap="round"/>
<path d="M55.2649 203.665L50.7002 204.922" stroke="#142533" stroke-width="1.3268" stroke-miterlimit="10" stroke-linecap="round"/>
<path d="M57.059 187.1L52.084 188.468" stroke="#142533" stroke-width="1.3268" stroke-miterlimit="10" stroke-linecap="round"/>
<path d="M59.0344 182.781L53.8799 184.055" stroke="#142533" stroke-width="1.3268" stroke-miterlimit="10" stroke-linecap="round"/>
<path d="M62.0352 179.061L56.7695 180.301" stroke="#142533" stroke-width="1.3268" stroke-miterlimit="10" stroke-linecap="round"/>
<path d="M79.4898 203.254C80.2505 202.673 80.7121 201.706 80.6609 200.569L80.6694 200.176C80.7976 198.149 79.3017 196.054 77.2843 195.498L76.7458 195.387L76.7885 192.547L75.2498 192.231L75.2071 195.07L73.0444 194.625L73.0872 191.786L71.5485 191.47L71.5057 194.309L69.4969 193.899L69.2832 208.907L70.0525 209.069L71.5143 209.369L71.4715 212.294L73.0102 212.61L73.053 209.685L75.2157 210.13L75.1729 213.055L76.7116 213.371L76.7543 210.446L77.5408 210.609C79.5667 210.968 81.2165 209.54 81.2079 207.436L81.2165 207C81.2763 205.589 80.5754 204.178 79.4898 203.254ZM71.0185 195.814L77.2159 197.097C78.3528 197.413 79.2162 198.619 79.1393 199.825L79.1307 200.304C79.182 201.51 78.2845 202.365 77.1903 202.211L70.9501 200.92L71.0185 195.814ZM79.6864 207.137C79.6949 208.377 78.729 209.223 77.5579 209.01L70.8561 207.624L70.9245 202.51L77.6006 203.887C78.7973 204.169 79.7291 205.401 79.6864 206.658V207.137Z" fill="#41CCB4"/>
<path d="M36.6462 162.308C36.253 177.282 44.596 184.303 51.9817 187.587L53.7511 183.593C48.2376 180.54 42.3735 175.409 42.8864 167.516C43.7327 154.509 69.95 151.721 69.95 151.721V140.09C69.95 140.099 37.1676 142.442 36.6462 162.308Z" fill="#F9F9F9" stroke="#142533" stroke-width="1.3268" stroke-miterlimit="10" stroke-linecap="round" stroke-linejoin="round"/>
<path d="M70.3174 139.817V151.447C70.3174 151.447 96.5347 154.235 97.381 167.242C98.3384 181.909 77.3184 187.023 77.3184 187.023V190.144C77.3184 190.144 104.322 188.707 103.621 162.026C103.1 142.16 70.3174 139.817 70.3174 139.817Z" fill="#F9F9F9" stroke="#142533" stroke-width="1.3268" stroke-miterlimit="10" stroke-linecap="round" stroke-linejoin="round"/>
<path d="M78.7976 114.315H62.9492V141.168H78.7976V114.315Z" fill="#F9F9F9" stroke="#142533" stroke-width="1.3268" stroke-miterlimit="10" stroke-linecap="round" stroke-linejoin="round"/>
<path d="M112.87 74.0532L67.377 112.502L71.8648 117.71L124.487 79.9369L112.87 74.0532Z" fill="#F9F9F9" stroke="#142533" stroke-width="1.3268" stroke-miterlimit="10" stroke-linecap="round" stroke-linejoin="round"/>
<path d="M61.8896 27.0524L117.658 77.7904L123.625 71.5475L76.2506 14.772L61.8896 27.0524Z" fill="#F9F9F9" stroke="#142533" stroke-width="1.3268" stroke-miterlimit="10" stroke-linecap="round" stroke-linejoin="round"/>
<path d="M83.746 17.4829H51.4766V19.5182H83.746V17.4829Z" fill="white" stroke="#142533" stroke-width="1.3268" stroke-miterlimit="10" stroke-linecap="round" stroke-linejoin="round"/>
<path d="M83.5068 21.7418C85.0546 12.8311 79.0887 4.3522 70.1818 2.80376C61.2748 1.25532 52.7995 7.22366 51.2517 16.1344C49.7039 25.0452 55.6698 33.5241 64.5767 35.0725C73.4837 36.6209 81.959 30.6526 83.5068 21.7418Z" fill="#F9F9F9" stroke="#142533" stroke-width="1.3268" stroke-miterlimit="10" stroke-linecap="round" stroke-linejoin="round"/>
<path d="M77.1725 18.9366C77.1725 24.3499 72.7873 28.737 67.3763 28.737C61.9653 28.737 57.5801 24.3499 57.5801 18.9366C57.5801 13.5233 61.9653 9.13623 67.3763 9.13623C72.7873 9.13623 77.1725 13.5233 77.1725 18.9366Z" fill="#F9F9F9" stroke="#142533" stroke-width="1.3268" stroke-miterlimit="10" stroke-linecap="round" stroke-linejoin="round"/>
<path d="M67.5649 29.0708C61.9744 29.0708 57.4268 24.5212 57.4268 18.9284C57.4268 13.3355 61.9744 8.78589 67.5649 8.78589C73.1554 8.78589 77.7031 13.3355 77.7031 18.9284C77.7031 24.5298 73.1554 29.0708 67.5649 29.0708ZM67.5649 9.47003C62.3505 9.47003 58.1106 13.7117 58.1106 18.9284C58.1106 24.145 62.3505 28.3867 67.5649 28.3867C72.7793 28.3867 77.0192 24.145 77.0192 18.9284C77.0278 13.7203 72.7793 9.47003 67.5649 9.47003Z" fill="#F9F9F9" stroke="#41CCB4" stroke-width="1.3268" stroke-miterlimit="10"/>
<path d="M127.676 73.4546C127.676 77.9785 124.009 81.6387 119.495 81.6387C114.973 81.6387 111.314 77.97 111.314 73.4546C111.314 68.9393 114.982 65.2705 119.495 65.2705C124.009 65.262 127.676 68.9307 127.676 73.4546Z" fill="#F9F9F9" stroke="#142533" stroke-width="1.3268" stroke-miterlimit="10" stroke-linecap="round" stroke-linejoin="round"/>
<path d="M124.384 73.4546C124.384 76.157 122.187 78.3548 119.486 78.3548C116.785 78.3548 114.588 76.157 114.588 73.4546C114.588 70.7523 116.785 68.5544 119.486 68.5544C122.196 68.5544 124.384 70.7437 124.384 73.4546Z" fill="#F9F9F9" stroke="#142533" stroke-width="1.3268" stroke-miterlimit="10" stroke-linecap="round" stroke-linejoin="round"/>
<path d="M119.589 78.5258C116.793 78.5258 114.52 76.251 114.52 73.4545C114.52 70.6581 116.793 68.3833 119.589 68.3833C122.384 68.3833 124.658 70.6581 124.658 73.4545C124.649 76.251 122.375 78.5258 119.589 78.5258ZM119.589 68.7254C116.981 68.7254 114.861 70.8462 114.861 73.4545C114.861 76.0628 116.981 78.1837 119.589 78.1837C122.196 78.1837 124.316 76.0628 124.316 73.4545C124.316 70.8462 122.196 68.7254 119.589 68.7254Z" fill="#F9F9F9" stroke="#41CCB4" stroke-width="1.3268" stroke-miterlimit="10"/>
<path d="M79.3183 113.717C79.3183 118.24 75.6511 121.901 71.1377 121.901C66.6157 121.901 62.957 118.232 62.957 113.717C62.957 109.193 66.6242 105.532 71.1377 105.532C75.6596 105.532 79.3183 109.193 79.3183 113.717Z" fill="white" stroke="#142533" stroke-width="1.3268" stroke-miterlimit="10" stroke-linecap="round" stroke-linejoin="round"/>
<path d="M76.0355 113.717C76.0355 116.419 73.8386 118.617 71.1374 118.617C68.4361 118.617 66.2393 116.419 66.2393 113.717C66.2393 111.014 68.4361 108.816 71.1374 108.816C73.8386 108.816 76.0355 111.014 76.0355 113.717Z" fill="white" stroke="#142533" stroke-width="1.3268" stroke-miterlimit="10" stroke-linecap="round" stroke-linejoin="round"/>
<path d="M71.2322 118.788C68.4369 118.788 66.1631 116.513 66.1631 113.716C66.1631 110.92 68.4369 108.645 71.2322 108.645C74.0274 108.645 76.3012 110.92 76.3012 113.716C76.3012 116.513 74.0274 118.788 71.2322 118.788ZM71.2322 108.987C68.625 108.987 66.505 111.108 66.505 113.716C66.505 116.325 68.625 118.446 71.2322 118.446C73.8394 118.446 75.9593 116.325 75.9593 113.716C75.9593 111.108 73.8394 108.987 71.2322 108.987Z" stroke="#41CCB4" stroke-width="1.3268" stroke-miterlimit="10"/>
<path d="M77.036 145.735C77.036 149.138 74.2749 151.892 70.8813 151.892C67.4791 151.892 64.7266 149.13 64.7266 145.735C64.7266 142.331 67.4876 139.577 70.8813 139.577C74.2749 139.577 77.036 142.34 77.036 145.735Z" fill="#F9F9F9" stroke="#142533" stroke-width="1.3268" stroke-miterlimit="10" stroke-linecap="round" stroke-linejoin="round"/>
<path d="M74.1133 145.735C74.1133 147.522 72.6601 148.976 70.8736 148.976C69.087 148.976 67.6338 147.522 67.6338 145.735C67.6338 143.947 69.087 142.494 70.8736 142.494C72.6601 142.494 74.1133 143.947 74.1133 145.735Z" stroke="#41CCB4" stroke-width="1.3268" stroke-miterlimit="10"/>
<path d="M78.2158 36.1687L109.571 65.4929L112.879 63.5773L83.0712 31.2856L78.2158 36.1687Z" stroke="#41CCB4" stroke-width="1.3268" stroke-miterlimit="10" stroke-linecap="round" stroke-linejoin="round"/>
<path d="M78.96 106.738L109.597 80.8945L112.879 83.3318L80.1738 107.961L78.96 106.738Z" stroke="#41CCB4" stroke-width="1.3268" stroke-miterlimit="10" stroke-linecap="round" stroke-linejoin="round"/>
<path d="M70.9411 375.479C70.9326 387.067 63.7606 396.449 49.4851 396.449C37.2099 396.449 26.4905 387.042 26.499 375.462C26.5076 363.883 36.4577 354.493 48.7329 354.502C61.0081 354.51 70.9496 363.892 70.9411 375.479Z" fill="#142533" stroke="#F9F9F9" stroke-width="1.3268" stroke-miterlimit="10" stroke-linecap="round" stroke-linejoin="round"/>
<path d="M50.4074 395.423C61.2753 395.423 70.0854 386.609 70.0854 375.736C70.0854 364.864 61.2753 356.05 50.4074 356.05C39.5396 356.05 30.7295 364.864 30.7295 375.736C30.7295 386.609 39.5396 395.423 50.4074 395.423Z" fill="#F9F9F9" stroke="#142533" stroke-width="1.3268" stroke-miterlimit="10" stroke-linecap="round" stroke-linejoin="round"/>
<path d="M50.4081 388.187C57.2819 388.187 62.8543 382.613 62.8543 375.736C62.8543 368.859 57.2819 363.285 50.4081 363.285C43.5343 363.285 37.9619 368.859 37.9619 375.736C37.9619 382.613 43.5343 388.187 50.4081 388.187Z" fill="#142533" stroke="#F9F9F9" stroke-width="1.3268" stroke-miterlimit="10" stroke-linecap="round" stroke-linejoin="round"/>
<path d="M50.4082 383.364C54.6194 383.364 58.0332 379.949 58.0332 375.736C58.0332 371.523 54.6194 368.108 50.4082 368.108C46.197 368.108 42.7832 371.523 42.7832 375.736C42.7832 379.949 46.197 383.364 50.4082 383.364Z" fill="#142533" stroke="#41CCB4" stroke-width="1.3268" stroke-miterlimit="10"/>
<path d="M136.762 375.479C136.754 387.067 129.582 396.449 115.306 396.449C103.031 396.449 92.3118 387.042 92.3203 375.462C92.3289 363.875 102.279 354.493 114.554 354.502C126.829 354.51 136.771 363.892 136.762 375.479Z" fill="#142533"/>
<path d="M116.23 395.423C127.098 395.423 135.908 386.609 135.908 375.736C135.908 364.864 127.098 356.05 116.23 356.05C105.362 356.05 96.5518 364.864 96.5518 375.736C96.5518 386.609 105.362 395.423 116.23 395.423Z" fill="#F9F9F9" stroke="#142533" stroke-width="1.3268" stroke-miterlimit="10" stroke-linecap="round" stroke-linejoin="round"/>
<path d="M116.229 388.187C123.103 388.187 128.676 382.613 128.676 375.736C128.676 368.859 123.103 363.285 116.229 363.285C109.356 363.285 103.783 368.859 103.783 375.736C103.783 382.613 109.356 388.187 116.229 388.187Z" fill="#142533"/>
<path d="M116.229 383.364C120.441 383.364 123.854 379.949 123.854 375.736C123.854 371.523 120.441 368.108 116.229 368.108C112.018 368.108 108.604 371.523 108.604 375.736C108.604 379.949 112.018 383.364 116.229 383.364Z" fill="#142533" stroke="#41CCB4" stroke-width="1.3268" stroke-miterlimit="10"/>
<path d="M117.222 388.188C124.095 388.188 129.668 382.613 129.668 375.736C129.668 368.859 124.095 363.285 117.222 363.285C110.348 363.285 104.775 368.859 104.775 375.736C104.775 382.613 110.348 388.188 117.222 388.188Z" fill="#142533" stroke="#F9F9F9" stroke-width="1.3268" stroke-miterlimit="10" stroke-linecap="round" stroke-linejoin="round"/>
<path d="M117.222 383.364C121.433 383.364 124.847 379.949 124.847 375.736C124.847 371.523 121.433 368.108 117.222 368.108C113.011 368.108 109.597 371.523 109.597 375.736C109.597 379.949 113.011 383.364 117.222 383.364Z" fill="#142533"/>
<path d="M165.758 313.171C165.758 313.171 173.793 309.938 173.349 295.4" stroke="#F9F9F9" stroke-width="1.3268" stroke-miterlimit="10" stroke-linecap="round" stroke-linejoin="round"/>
<path d="M83.4217 389.179C128.942 389.179 165.843 356.635 165.843 316.489C165.843 276.343 128.942 243.798 83.4217 243.798C37.9014 243.798 1 276.343 1 316.489C1 356.635 37.9014 389.179 83.4217 389.179Z" fill="#F9F9F9" stroke="#142533" stroke-width="1.3268" stroke-miterlimit="10" stroke-linecap="round" stroke-linejoin="round"/>
<path d="M25.7556 356.212C37.4166 356.212 46.8697 347.468 46.8697 336.68C46.8697 325.893 37.4166 317.148 25.7556 317.148C14.0947 317.148 4.6416 325.893 4.6416 336.68C4.6416 347.468 14.0947 356.212 25.7556 356.212Z" fill="#F9F9F9" stroke="#142533" stroke-width="1.3268" stroke-miterlimit="10" stroke-linecap="round" stroke-linejoin="round"/>
<path d="M83.4306 289.91L92.0643 283.103C92.0643 283.103 92.9789 264.023 81.6269 255.386C81.6269 255.386 65.2828 254.924 56.1875 272.644C56.196 272.635 77.994 276.732 83.4306 289.91Z" fill="#F9F9F9" stroke="#142533" stroke-width="1.3268" stroke-miterlimit="10" stroke-linecap="round" stroke-linejoin="round"/>
<path d="M56.709 272.609C56.709 272.609 61.761 261.8 79.3617 257.909C79.3617 257.909 88.8075 265.734 83.5674 289.131C83.5674 289.131 78.9941 277.202 56.709 272.609Z" fill="#142533" stroke="#142533" stroke-width="1.3268" stroke-miterlimit="10" stroke-linecap="round" stroke-linejoin="round"/>
<path d="M24.4049 270.805C24.4049 270.805 18.669 260.474 5.78688 263.074C5.78688 263.074 4.41917 273.071 11.6851 283.068C11.6851 283.068 15.7797 275.346 24.4049 270.805Z" fill="#142533" stroke="#142533" stroke-width="1.3268" stroke-miterlimit="10" stroke-linecap="round" stroke-linejoin="round"/>
<path d="M5.78711 263.074C5.78711 263.074 18.2162 258.259 27.6705 262.946C27.6705 262.946 28.0381 267.17 24.4051 270.805C24.4051 270.805 17.1477 261.714 5.78711 263.074Z" fill="#F9F9F9" stroke="#142533" stroke-width="1.3268" stroke-miterlimit="10" stroke-linecap="round" stroke-linejoin="round"/>
<path d="M22.3367 356.212C33.9977 356.212 43.4507 347.468 43.4507 336.68C43.4507 325.893 33.9977 317.148 22.3367 317.148C10.6757 317.148 1.22266 325.893 1.22266 336.68C1.22266 347.468 10.6757 356.212 22.3367 356.212Z" fill="#F9F9F9" stroke="#142533" stroke-width="1.3268" stroke-miterlimit="10" stroke-linecap="round" stroke-linejoin="round"/>
<path d="M30.0557 342.136C31.184 342.136 32.0987 339.084 32.0987 335.32C32.0987 331.556 31.184 328.504 30.0557 328.504C28.9274 328.504 28.0127 331.556 28.0127 335.32C28.0127 339.084 28.9274 342.136 30.0557 342.136Z" fill="#142533" stroke="#F9F9F9" stroke-width="1.3268" stroke-miterlimit="10" stroke-linecap="round" stroke-linejoin="round"/>
<path d="M10.0782 342.127C11.2065 342.127 12.1212 339.076 12.1212 335.312C12.1212 331.547 11.2065 328.496 10.0782 328.496C8.94985 328.496 8.03516 331.547 8.03516 335.312C8.03516 339.076 8.94985 342.127 10.0782 342.127Z" fill="#142533" stroke="#F9F9F9" stroke-width="1.3268" stroke-miterlimit="10" stroke-linecap="round" stroke-linejoin="round"/>
<path d="M173.349 295.4C175.355 295.4 176.982 293.773 176.982 291.766C176.982 289.758 175.355 288.131 173.349 288.131C171.342 288.131 169.716 289.758 169.716 291.766C169.716 293.773 171.342 295.4 173.349 295.4Z" fill="#142533" stroke="#41CCB4" stroke-width="1.3268" stroke-miterlimit="10"/>
<path d="M2.43632 320.303C2.43632 320.303 14.4123 308.339 23.8154 308.339C34.928 308.347 45.1858 316.044 52.0158 323.741C58.8459 331.437 75.096 322.894 80.2249 316.053C85.3538 309.211 72.4631 275.004 34.0817 277.552C21.2594 278.399 12.0188 285.386 8.4286 291.227C1.57295 302.378 2.43632 320.303 2.43632 320.303Z" fill="#142533"/>
<path d="M50.648 303.644C51.7858 303.644 52.7081 301.06 52.7081 297.871C52.7081 294.683 51.7858 292.099 50.648 292.099C49.5102 292.099 48.5879 294.683 48.5879 297.871C48.5879 301.06 49.5102 303.644 50.648 303.644Z" stroke="#41CCB4" stroke-width="1.3268" stroke-miterlimit="10"/>
<path d="M15.6177 303.627C16.7555 303.627 17.6778 301.042 17.6778 297.854C17.6778 294.666 16.7555 292.082 15.6177 292.082C14.48 292.082 13.5576 294.666 13.5576 297.854C13.5576 301.042 14.48 303.627 15.6177 303.627Z" stroke="#41CCB4" stroke-width="1.3268" stroke-miterlimit="10"/>
<path d="M31.4914 263.895C18.6691 256.199 4.95782 262.313 4.95782 262.313C4.95782 262.313 4.39364 274.388 11.9246 284.762" stroke="#F9F9F9" stroke-width="1.3268" stroke-miterlimit="10" stroke-linecap="round" stroke-linejoin="round"/>
<path d="M158.424 384.031C158.415 395.619 151.243 405 136.968 405C124.692 405 113.973 395.593 113.981 384.014C113.99 372.426 123.94 363.045 136.215 363.045C148.491 363.053 158.432 372.443 158.424 384.031Z" fill="#142533" stroke="#F9F9F9" stroke-width="1.3268" stroke-miterlimit="10" stroke-linecap="round" stroke-linejoin="round"/>
<path d="M137.891 403.974C148.759 403.974 157.569 395.16 157.569 384.287C157.569 373.415 148.759 364.601 137.891 364.601C127.023 364.601 118.213 373.415 118.213 384.287C118.213 395.16 127.023 403.974 137.891 403.974Z" fill="#F9F9F9" stroke="#142533" stroke-width="1.3268" stroke-miterlimit="10" stroke-linecap="round" stroke-linejoin="round"/>
<path d="M137.891 396.739C144.765 396.739 150.338 391.164 150.338 384.288C150.338 377.411 144.765 371.836 137.891 371.836C131.018 371.836 125.445 377.411 125.445 384.288C125.445 391.164 131.018 396.739 137.891 396.739Z" fill="#142533" stroke="#F9F9F9" stroke-width="1.3268" stroke-miterlimit="10" stroke-linecap="round" stroke-linejoin="round"/>
<path d="M137.891 391.916C142.102 391.916 145.516 388.5 145.516 384.288C145.516 380.075 142.102 376.659 137.891 376.659C133.679 376.659 130.266 380.075 130.266 384.288C130.266 388.5 133.679 391.916 137.891 391.916Z" fill="#142533" stroke="#41CCB4" stroke-width="1.3268" stroke-miterlimit="10"/>
<path d="M89.995 388.948C98.1671 383.621 104.151 375.924 104.151 375.924C129.795 344.282 128.941 298.958 104.151 266.461C82.9855 238.71 54.5713 248.502 54.5713 248.502" stroke="#142533" stroke-width="1.3268" stroke-miterlimit="10" stroke-linecap="round" stroke-linejoin="round"/>
<path d="M91.2392 251.781C91.4634 251.393 91.1481 250.79 90.5348 250.436C89.9215 250.082 89.2426 250.11 89.0183 250.498C88.7941 250.887 89.1095 251.489 89.7227 251.843C90.336 252.198 91.0149 252.17 91.2392 251.781Z" fill="#142533"/>
<path d="M85.2558 253.491C85.48 253.103 85.1647 252.5 84.5514 252.146C83.9381 251.792 83.2592 251.82 83.0349 252.208C82.8107 252.597 83.1261 253.199 83.7393 253.553C84.3526 253.908 85.0315 253.88 85.2558 253.491Z" fill="#142533"/>
<path d="M111.499 270.896C111.832 270.596 111.718 269.926 111.245 269.399C110.771 268.873 110.117 268.689 109.783 268.989C109.45 269.289 109.564 269.959 110.037 270.486C110.511 271.013 111.165 271.196 111.499 270.896Z" fill="#142533"/>
<path d="M105.515 273.461C105.849 273.161 105.735 272.491 105.261 271.964C104.788 271.438 104.133 271.254 103.8 271.554C103.467 271.854 103.58 272.525 104.054 273.051C104.528 273.578 105.182 273.761 105.515 273.461Z" fill="#142533"/>
<path d="M123.896 300.248C124.321 300.105 124.482 299.444 124.256 298.773C124.029 298.102 123.501 297.674 123.076 297.818C122.651 297.961 122.49 298.622 122.717 299.293C122.943 299.964 123.471 300.392 123.896 300.248Z" fill="#142533"/>
<path d="M117.058 301.104C117.483 300.96 117.643 300.3 117.417 299.629C117.19 298.957 116.662 298.529 116.237 298.673C115.812 298.817 115.651 299.477 115.878 300.148C116.104 300.82 116.633 301.247 117.058 301.104Z" fill="#142533"/>
<path d="M126.009 337.54C126.04 336.833 125.702 336.243 125.254 336.223C124.806 336.204 124.417 336.762 124.387 337.47C124.356 338.178 124.694 338.767 125.142 338.787C125.591 338.806 125.979 338.248 126.009 337.54Z" fill="#142533"/>
<path d="M118.317 337.541C118.348 336.833 118.009 336.243 117.561 336.224C117.113 336.205 116.725 336.763 116.694 337.47C116.664 338.178 117.002 338.768 117.45 338.787C117.898 338.807 118.286 338.249 118.317 337.541Z" fill="#142533"/>
<path d="M109.634 374.712C110.012 374.113 110.011 373.433 109.632 373.194C109.253 372.954 108.639 373.245 108.261 373.844C107.883 374.443 107.884 375.123 108.263 375.363C108.642 375.602 109.256 375.311 109.634 374.712Z" fill="#142533"/>
<path d="M103.651 372.146C104.029 371.547 104.028 370.868 103.649 370.628C103.27 370.388 102.656 370.68 102.277 371.279C101.899 371.878 101.9 372.558 102.279 372.797C102.659 373.037 103.273 372.745 103.651 372.146Z" fill="#142533"/>
<path d="M62.2647 253.633C62.2647 253.633 68.522 250.512 75.9418 248.502C81.9597 246.869 87.9691 246.321 92.1834 245.936L81.9255 245.081C81.9255 245.081 74.7621 245.825 67.3936 247.647C62.7348 248.801 57.3067 250.982 52.0068 253.633H62.2647Z" fill="#F9F9F9" stroke="#F9F9F9" stroke-width="1.3268" stroke-miterlimit="10" stroke-linecap="round" stroke-linejoin="round"/>
<path d="M66.5393 251.067C66.5393 251.067 70.2663 248.955 75.0875 247.647C79.0026 246.586 83.4647 246.184 86.2001 245.936H81.0712C81.0712 245.936 76.2415 245.996 71.4545 247.176C68.4285 247.929 64.898 249.348 61.4531 251.067H66.5393Z" fill="#142533" stroke="#142533" stroke-width="1.3268" stroke-miterlimit="10" stroke-linecap="round" stroke-linejoin="round"/>
<path d="M93.32 384.031C93.3115 395.619 86.1395 405 71.864 405C59.5888 405 48.8694 395.593 48.8779 384.014C48.8865 372.426 58.8366 363.045 71.1118 363.045C83.3785 363.053 93.32 372.443 93.32 384.031Z" fill="#142533" stroke="#F9F9F9" stroke-width="1.3268" stroke-miterlimit="10" stroke-linecap="round" stroke-linejoin="round"/>
<path d="M72.7873 403.974C83.6552 403.974 92.4653 395.16 92.4653 384.287C92.4653 373.415 83.6552 364.601 72.7873 364.601C61.9195 364.601 53.1094 373.415 53.1094 384.287C53.1094 395.16 61.9195 403.974 72.7873 403.974Z" fill="#F9F9F9" stroke="#142533" stroke-width="1.3268" stroke-miterlimit="10" stroke-linecap="round" stroke-linejoin="round"/>
<path d="M72.787 396.739C79.6608 396.739 85.2332 391.164 85.2332 384.288C85.2332 377.411 79.6608 371.836 72.787 371.836C65.9132 371.836 60.3408 377.411 60.3408 384.288C60.3408 391.164 65.9132 396.739 72.787 396.739Z" fill="#142533" stroke="#F9F9F9" stroke-width="1.3268" stroke-miterlimit="10" stroke-linecap="round" stroke-linejoin="round"/>
<path d="M72.7871 391.916C76.9983 391.916 80.4121 388.5 80.4121 384.288C80.4121 380.075 76.9983 376.659 72.7871 376.659C68.5759 376.659 65.1621 380.075 65.1621 384.288C65.1621 388.5 68.5759 391.916 72.7871 391.916Z" fill="#142533" stroke="#41CCB4" stroke-width="1.3268" stroke-miterlimit="10"/>
</svg>
