<svg width="16" height="19" viewBox="0 0 16 19" fill="none" xmlns="http://www.w3.org/2000/svg">
<path d="M15.2227 3.19531L13.4297 1.40234C13.1484 1.12109 12.6211 0.875 12.2344 0.875H6.1875C5.23828 0.875 4.5 1.64844 4.5 2.5625V4.25H1.6875C0.738281 4.25 0 5.02344 0 5.9375V17.1875C0 18.1367 0.738281 18.875 1.6875 18.875H9.5625C10.4766 18.875 11.25 18.1367 11.25 17.1875V15.5H14.0625C14.9766 15.5 15.75 14.7617 15.75 13.8125V4.39062C15.75 4.00391 15.5039 3.47656 15.2227 3.19531ZM12.375 2.03516C12.4453 2.07031 12.5508 2.10547 12.6211 2.17578L14.4492 4.00391C14.5195 4.07422 14.5547 4.17969 14.5898 4.25H12.375V2.03516ZM10.125 17.1875C10.125 17.5039 9.84375 17.75 9.5625 17.75H1.6875C1.37109 17.75 1.125 17.5039 1.125 17.1875V5.9375C1.125 5.65625 1.37109 5.375 1.6875 5.375H4.5V13.8125C4.5 14.7617 5.23828 15.5 6.1875 15.5H10.125V17.1875ZM14.625 13.8125C14.625 14.1289 14.3438 14.375 14.0625 14.375H6.1875C5.87109 14.375 5.625 14.1289 5.625 13.8125V2.5625C5.625 2.28125 5.87109 2 6.1875 2H11.25V4.53125C11.25 5.02344 11.6016 5.375 12.0938 5.375H14.625V13.8125Z" fill="white" fill-opacity="0.58"/>
</svg>
