<svg width="30" height="18" viewBox="0 0 30 18" fill="none" xmlns="http://www.w3.org/2000/svg">
<path d="M20.6523 1.01562L20.1211 1.48047C19.8555 1.8125 19.8555 2.27734 20.1211 2.60938L25.6992 8.12109H0.796875C0.332031 8.12109 0 8.51953 0 8.91797V9.58203C0 10.0469 0.332031 10.3789 0.796875 10.3789H25.6992L20.1211 15.957C19.8555 16.2891 19.8555 16.7539 20.1211 17.0859L20.6523 17.5508C20.918 17.8828 21.4492 17.8828 21.7812 17.5508L29.4844 9.84766C29.8164 9.51562 29.8164 9.05078 29.4844 8.71875L21.7812 1.01562C21.4492 0.683594 20.918 0.683594 20.6523 1.01562Z" fill="#41CCB4"/>
</svg>
