<svg width="16" height="15" viewBox="0 0 16 15" fill="none" xmlns="http://www.w3.org/2000/svg">
<path d="M13.125 6H9.98047L7.10938 0.996094C7.05469 0.859375 6.86328 0.75 6.72656 0.75H4.32031C4.01953 0.75 3.82812 1.05078 3.88281 1.32422L5.25 6H3.5L2.29688 4.44141C2.21484 4.33203 2.10547 4.25 1.96875 4.25H0.4375C0.136719 4.25 -0.0820312 4.52344 0 4.79688L0.875 7.75L0 10.7305C-0.0820312 11.0039 0.136719 11.25 0.4375 11.25H1.96875C2.10547 11.25 2.21484 11.1953 2.29688 11.0859L3.5 9.5H5.25L3.88281 14.2031C3.82812 14.4766 4.01953 14.75 4.32031 14.75H6.72656C6.89062 14.75 7.02734 14.668 7.10938 14.5312L9.98047 9.5H13.125C14.082 9.5 15.75 8.73438 15.75 7.75C15.75 6.79297 14.082 6 13.125 6ZM13.125 8.625H9.48828L6.48047 13.875H4.89453L6.39844 8.625H3.0625L1.75 10.375H1.01172L1.77734 7.75L1.01172 5.125H1.75L3.0625 6.875H6.39844L4.89453 1.625H6.48047L9.48828 6.875H13.125C13.8359 6.875 14.8203 7.47656 14.875 7.75C14.8203 8.05078 13.8359 8.625 13.125 8.625Z" fill="#41CCB4"/>
</svg>
